<svg width="152" height="19" viewBox="0 0 152 19" fill="none" xmlns="http://www.w3.org/2000/svg">
<path d="M10.5192 13.272C10.5192 17.016 8.64722 18.24 4.95122 18.24C3.05522 18.24 0.655219 17.712 0.655219 17.712C0.391219 17.688 0.199219 17.52 0.199219 17.256V15.072C0.199219 14.808 0.391219 14.664 0.679219 14.712C0.679219 14.712 3.39122 15.24 4.75922 15.24C6.58322 15.24 7.27922 14.664 7.27922 13.272V12.792C7.27922 11.736 6.46322 11.328 5.40722 10.968L3.36722 10.296C1.66322 9.74397 0.319219 8.59197 0.319219 6.07197V5.47197C0.319219 2.06397 2.79122 0.719971 5.79122 0.719971C7.63922 0.719971 9.82322 1.15197 9.82322 1.15197C10.0872 1.17597 10.2792 1.34397 10.2792 1.60797V3.71997C10.2792 3.98397 10.1112 4.12797 9.82322 4.10397C9.82322 4.10397 7.39922 3.71997 5.83922 3.71997C4.18322 3.71997 3.55922 4.31997 3.55922 5.47197V5.83197C3.55922 6.62397 4.13522 7.05597 4.97522 7.34397L7.01522 8.01597C8.83922 8.61597 10.5192 9.57597 10.5192 12.552V13.272Z" fill="white"/>
<path d="M22.7658 12.864C22.7658 13.128 22.5738 13.32 22.3098 13.32H16.3338C16.5018 14.64 17.1978 15.288 18.6858 15.288C19.9818 15.288 21.8298 14.976 21.8298 14.976C22.1178 14.952 22.2858 15.096 22.2858 15.36V17.424C22.2858 17.688 22.1178 17.88 21.8298 17.904C21.8298 17.904 20.0778 18.24 18.4938 18.24C15.2538 18.24 13.0458 16.68 13.0458 12.432V11.424C13.0458 8.03997 14.7498 5.75997 18.0378 5.75997C21.3978 5.75997 22.7658 8.03997 22.7658 10.848V12.864ZM19.7658 10.992V10.656C19.7658 9.28797 19.3818 8.47197 18.0858 8.47197C16.7178 8.47197 16.3098 9.35997 16.2858 10.992H19.7658Z" fill="white"/>
<path d="M35.1202 17.544C35.1202 17.808 34.9282 18 34.6642 18H32.3362C32.0722 18 31.8802 17.808 31.8802 17.544V10.32C31.8802 9.33597 31.5442 8.75997 30.4882 8.75997C29.9122 8.75997 29.2402 8.97597 28.6402 9.26397V17.544C28.6402 17.808 28.4482 18 28.1842 18H25.8562C25.5922 18 25.4002 17.808 25.4002 17.544V6.45597C25.4002 6.19197 25.5922 5.99997 25.8562 5.99997H27.9442C28.2082 5.99997 28.4002 6.19197 28.4002 6.45597V6.79197C29.1442 6.26397 30.2002 5.75997 31.5202 5.75997C34.2322 5.75997 35.1202 7.39197 35.1202 9.83997V17.544Z" fill="white"/>
<path d="M44.6152 17.592C44.6152 17.856 44.4472 18.024 44.1592 18.072C44.1592 18.072 42.9352 18.24 41.8072 18.24C39.5272 18.24 38.2552 17.04 38.2552 14.28V8.75997H37.0312C36.7672 8.75997 36.5752 8.56797 36.5752 8.30397V6.45597C36.5752 6.19197 36.7672 5.99997 37.0312 5.99997H38.2552V3.33597C38.2552 3.07197 38.4472 2.87997 38.7112 2.87997H41.0392C41.3032 2.87997 41.4952 3.07197 41.4952 3.33597V5.99997H44.1592C44.4232 5.99997 44.6152 6.19197 44.6152 6.45597V8.30397C44.6152 8.56797 44.4232 8.75997 44.1592 8.75997H41.4952V13.872C41.4952 14.856 41.9272 15.24 42.7192 15.24C43.2712 15.24 44.1592 15.096 44.1592 15.096C44.4472 15.072 44.6152 15.168 44.6152 15.432V17.592Z" fill="white"/>
<path d="M49.5464 3.74397C49.5464 4.00797 49.3544 4.19997 49.0904 4.19997H46.7624C46.4984 4.19997 46.3064 4.00797 46.3064 3.74397V1.41597C46.3064 1.15197 46.4984 0.95997 46.7624 0.95997H49.0904C49.3544 0.95997 49.5464 1.15197 49.5464 1.41597V3.74397ZM49.5464 17.544C49.5464 17.808 49.3544 18 49.0904 18H46.7624C46.4984 18 46.3064 17.808 46.3064 17.544V6.45597C46.3064 6.19197 46.4984 5.99997 46.7624 5.99997H49.0904C49.3544 5.99997 49.5464 6.19197 49.5464 6.45597V17.544Z" fill="white"/>
<path d="M62.1436 17.544C62.1436 17.808 61.9516 18 61.6876 18H59.3596C59.0956 18 58.9036 17.808 58.9036 17.544V10.32C58.9036 9.33597 58.5676 8.75997 57.5116 8.75997C56.9356 8.75997 56.2636 8.97597 55.6636 9.26397V17.544C55.6636 17.808 55.4716 18 55.2076 18H52.8796C52.6156 18 52.4236 17.808 52.4236 17.544V6.45597C52.4236 6.19197 52.6156 5.99997 52.8796 5.99997H54.9676C55.2316 5.99997 55.4236 6.19197 55.4236 6.45597V6.79197C56.1676 6.26397 57.2236 5.75997 58.5436 5.75997C61.2556 5.75997 62.1436 7.39197 62.1436 9.83997V17.544Z" fill="white"/>
<path d="M74.5158 12.864C74.5158 13.128 74.3238 13.32 74.0598 13.32H68.0838C68.2518 14.64 68.9478 15.288 70.4358 15.288C71.7318 15.288 73.5798 14.976 73.5798 14.976C73.8678 14.952 74.0358 15.096 74.0358 15.36V17.424C74.0358 17.688 73.8678 17.88 73.5798 17.904C73.5798 17.904 71.8278 18.24 70.2438 18.24C67.0038 18.24 64.7958 16.68 64.7958 12.432V11.424C64.7958 8.03997 66.4998 5.75997 69.7878 5.75997C73.1478 5.75997 74.5158 8.03997 74.5158 10.848V12.864ZM71.5158 10.992V10.656C71.5158 9.28797 71.1318 8.47197 69.8358 8.47197C68.4678 8.47197 68.0598 9.35997 68.0358 10.992H71.5158Z" fill="white"/>
<path d="M80.3902 17.544C80.3902 17.808 80.1982 18 79.9342 18H77.6062C77.3422 18 77.1502 17.808 77.1502 17.544V1.41597C77.1502 1.15197 77.3422 0.95997 77.6062 0.95997H79.9342C80.1982 0.95997 80.3902 1.15197 80.3902 1.41597V17.544Z" fill="white"/>
<path d="M101.754 12C101.754 15.984 99.7139 18.24 95.8739 18.24C92.0339 18.24 89.9939 15.984 89.9939 12V6.95997C89.9939 2.97597 92.0339 0.719971 95.8739 0.719971C99.7139 0.719971 101.754 2.97597 101.754 6.95997V12ZM98.5139 11.76V7.19997C98.5139 5.20797 97.9139 3.71997 95.8739 3.71997C93.8339 3.71997 93.2339 5.20797 93.2339 7.19997V11.76C93.2339 13.752 93.8339 15.24 95.8739 15.24C97.9139 15.24 98.5139 13.752 98.5139 11.76Z" fill="white"/>
<path d="M114.362 17.544C114.362 17.808 114.17 18 113.906 18H111.578C111.314 18 111.122 17.808 111.122 17.544V10.32C111.122 9.33597 110.786 8.75997 109.73 8.75997C109.154 8.75997 108.482 8.97597 107.882 9.26397V17.544C107.882 17.808 107.69 18 107.426 18H105.098C104.834 18 104.642 17.808 104.642 17.544V6.45597C104.642 6.19197 104.834 5.99997 105.098 5.99997H107.186C107.45 5.99997 107.642 6.19197 107.642 6.45597V6.79197C108.386 6.26397 109.442 5.75997 110.762 5.75997C113.474 5.75997 114.362 7.39197 114.362 9.83997V17.544Z" fill="white"/>
<path d="M120.492 17.544C120.492 17.808 120.3 18 120.036 18H117.708C117.444 18 117.252 17.808 117.252 17.544V1.41597C117.252 1.15197 117.444 0.95997 117.708 0.95997H120.036C120.3 0.95997 120.492 1.15197 120.492 1.41597V17.544Z" fill="white"/>
<path d="M126.609 3.74397C126.609 4.00797 126.417 4.19997 126.153 4.19997H123.825C123.561 4.19997 123.369 4.00797 123.369 3.74397V1.41597C123.369 1.15197 123.561 0.95997 123.825 0.95997H126.153C126.417 0.95997 126.609 1.15197 126.609 1.41597V3.74397ZM126.609 17.544C126.609 17.808 126.417 18 126.153 18H123.825C123.561 18 123.369 17.808 123.369 17.544V6.45597C123.369 6.19197 123.561 5.99997 123.825 5.99997H126.153C126.417 5.99997 126.609 6.19197 126.609 6.45597V17.544Z" fill="white"/>
<path d="M139.206 17.544C139.206 17.808 139.014 18 138.75 18H136.422C136.158 18 135.966 17.808 135.966 17.544V10.32C135.966 9.33597 135.63 8.75997 134.574 8.75997C133.998 8.75997 133.326 8.97597 132.726 9.26397V17.544C132.726 17.808 132.534 18 132.27 18H129.942C129.678 18 129.486 17.808 129.486 17.544V6.45597C129.486 6.19197 129.678 5.99997 129.942 5.99997H132.03C132.294 5.99997 132.486 6.19197 132.486 6.45597V6.79197C133.23 6.26397 134.286 5.75997 135.606 5.75997C138.318 5.75997 139.206 7.39197 139.206 9.83997V17.544Z" fill="white"/>
<path d="M151.578 12.864C151.578 13.128 151.386 13.32 151.122 13.32H145.146C145.314 14.64 146.01 15.288 147.498 15.288C148.794 15.288 150.642 14.976 150.642 14.976C150.93 14.952 151.098 15.096 151.098 15.36V17.424C151.098 17.688 150.93 17.88 150.642 17.904C150.642 17.904 148.89 18.24 147.306 18.24C144.066 18.24 141.858 16.68 141.858 12.432V11.424C141.858 8.03997 143.562 5.75997 146.85 5.75997C150.21 5.75997 151.578 8.03997 151.578 10.848V12.864ZM148.578 10.992V10.656C148.578 9.28797 148.194 8.47197 146.898 8.47197C145.53 8.47197 145.122 9.35997 145.098 10.992H148.578Z" fill="white"/>
</svg>
